<svg xmlns="http://www.w3.org/2000/svg" id="bar-11" width="17" height="17" viewBox="0 0 17 17"><g><path fill="none" d="M0,0 H17 V17 H0 Z"/><path fill="#0F0F0F" stroke="hsl(50, 21%, 100%)" stroke-linejoin="round" stroke-miterlimit="4" stroke-width="2" d="M8.488 4C7.976 4 3.5 4 4 4.5L8 9v2.5C8 12 5.5 12 5.5 13h6C11.5 12 9 12 9 11.5V9l4-4.5C13.5 4 9 4 8.488 4zM5.5 5h6l-1 1h-4l-1-1z"/><path fill="#0F0F0F" d="M8.488 4C7.976 4 3.5 4 4 4.5L8 9v2.5C8 12 5.5 12 5.5 13h6C11.5 12 9 12 9 11.5V9l4-4.5C13.5 4 9 4 8.488 4zM5.5 5h6l-1 1h-4l-1-1z"/></g></svg>