<svg xmlns="http://www.w3.org/2000/svg" id="border-dot-13" width="13" height="13" viewBox="0 0 13 13"><g><path fill="hsl(50, 13%, 64%)" d="M1,6.5A5.5,5.5,0,1,0,6.5,1,5.5,5.5,0,0,0,1,6.5" opacity=".25"/><path fill="hsl(50, 13%, 64%)" d="M1.5,6.5a5,5,0,1,0,5-5,5,5,0,0,0-5,5" opacity=".5"/><path fill="hsl(50, 13%, 64%)" d="M2,6.5A4.5,4.5,0,1,0,6.5,2,4.5,4.5,0,0,0,2,6.5" opacity=".75"/><path fill="hsl(50, 13%, 64%)" d="M2.5,6.5a4,4,0,1,0,4-4,4,4,0,0,0-4,4"/><path fill="hsl(35, 6%, 1%)" d="M3,6.5A3.5,3.5,0,1,0,6.5,3,3.5,3.5,0,0,0,3,6.5"/><path fill="hsl(50, 13%, 64%)" d="M4,6.5A2.5,2.5,0,1,0,6.5,4,2.5,2.5,0,0,0,4,6.5"/><path fill="hsl(35, 6%, 1%)" d="M5,6.5A1.5,1.5,0,1,0,6.5,5,1.5,1.5,0,0,0,5,6.5"/></g></svg>