<svg xmlns="http://www.w3.org/2000/svg" id="cafe-11" width="17" height="17" viewBox="0 0 17 17"><g><path fill="none" d="M0,0 H17 V17 H0 Z"/><path fill="#0F0F0F" stroke="hsl(50, 21%, 100%)" stroke-linejoin="round" stroke-miterlimit="4" stroke-width="2" d="M10 12.5a0.5 0.5 0 0 1-0.5 0.5h-4a0.5 0.5 0 0 1 0-1h4a0.5 0.5 0 0 1 0.5 0.5zM11 6H10V5H5v4a2.5 2.5 0 0 0 4.79 1H11a2 2 0 1 0 0-4z m0 3H10V7h1a1 1 0 1 1 0 2z"/><path fill="#0F0F0F" d="M10 12.5a0.5 0.5 0 0 1-0.5 0.5h-4a0.5 0.5 0 0 1 0-1h4a0.5 0.5 0 0 1 0.5 0.5zM11 6H10V5H5v4a2.5 2.5 0 0 0 4.79 1H11a2 2 0 1 0 0-4z m0 3H10V7h1a1 1 0 1 1 0 2z"/></g></svg>