<svg xmlns="http://www.w3.org/2000/svg" id="industry-15" width="21" height="21" viewBox="0 0 21 21"><g><path fill="none" d="M0,0 H21 V21 H0 Z"/><path stroke="hsl(50, 21%, 100%)" stroke-linejoin="round" stroke-miterlimit="4" stroke-width="2" d="M17 4v12H4V11.72a0.5 0.5 0 0 1 0.17-0.37l3-3.22a0.5 0.5 0 0 1 0.83 0.38v3l3.16-3.37a0.5 0.5 0 0 1 0.84 0.37V14h3V4h2z"/><path d="M17 4v12H4V11.72a0.5 0.5 0 0 1 0.17-0.37l3-3.22a0.5 0.5 0 0 1 0.83 0.38v3l3.16-3.37a0.5 0.5 0 0 1 0.84 0.37V14h3V4h2z"/></g></svg>