<svg xmlns="http://www.w3.org/2000/svg" id="prison-11" width="17" height="17" viewBox="0 0 17 17"><g><path fill="none" d="M0,0 H17 V17 H0 Z"/><path stroke="hsl(50, 21%, 100%)" stroke-linejoin="round" stroke-miterlimit="4" stroke-width="2" d="M5 4v9h7V4H5z m1 1h1v3H6V5z m2 0h1v3H8V5z m2 0h1v2H10V5z m0.5 3a0.5 0.5 0 1 1 0 1 0.5 0.5 0 0 1 0-1zM6 9h1v3H6V9z m2 0h1v3H8V9z m2 1h1v2H10V10z"/><path d="M5 4v9h7V4H5z m1 1h1v3H6V5z m2 0h1v3H8V5z m2 0h1v2H10V5z m0.5 3a0.5 0.5 0 1 1 0 1 0.5 0.5 0 0 1 0-1zM6 9h1v3H6V9z m2 0h1v3H8V9z m2 1h1v2H10V10z"/></g></svg>