<svg xmlns="http://www.w3.org/2000/svg" id="school-15" width="21" height="21" viewBox="0 0 21 21"><g><path fill="none" d="M0,0 H21 V21 H0 Z"/><path fill="hsl(50, 14%, 19%)" stroke="hsl(50, 13%, 64%)" stroke-linejoin="round" stroke-miterlimit="4" stroke-width="2" d="M14 16v-1h2v-1H12.5v-1H16V12h-2V11h2V10h-2V9h2V8H12.5V7H16V6h-2V5h2V4H11v13h5v-1h-2z m-5-2H5V4h4v10z m0 1l-2 2-2-2h4z"/><path fill="hsl(50, 14%, 19%)" d="M14 16v-1h2v-1H12.5v-1H16V12h-2V11h2V10h-2V9h2V8H12.5V7H16V6h-2V5h2V4H11v13h5v-1h-2z m-5-2H5V4h4v10z m0 1l-2 2-2-2h4z"/></g></svg>