<svg xmlns="http://www.w3.org/2000/svg" id="town-hall-15" width="21" height="21" viewBox="0 0 21 21"><g><path fill="none" d="M0,0 H21 V21 H0 Z"/><path stroke="hsl(50, 21%, 100%)" stroke-linejoin="round" stroke-miterlimit="4" stroke-width="2" d="M10.5 3L4 6.445V7h13v-0.555L10.5 3zM5 8v5l-1 1.555V16h13v-1.445L16 13V8H5z m2 1h1v5.5H7V9z m3 0h1v5.5H10V9z m3 0h1v5.5h-1V9z"/><path d="M10.5 3L4 6.445V7h13v-0.555L10.5 3zM5 8v5l-1 1.555V16h13v-1.445L16 13V8H5z m2 1h1v5.5H7V9z m3 0h1v5.5H10V9z m3 0h1v5.5h-1V9z"/></g></svg>